#!OML:ASF F:\VICON\USERDATA\INSTALL\rory3\rory3.ASF
:FULLY-SPECIFIED
:DEGREES
16
root 0.207456 18.2405 -21.5546 -3.79403 -1.67649 -4.64431
lowerback 11.7022 -0.533507 1.87999
upperback -0.0715893 -0.211946 3.56341
thorax -6.6496 -0.104686 2.73827
lowerneck -14.5467 -2.31657 -2.71648
upperneck 21.8934 -2.43914 -0.563258
head 9.32615 -1.4307 -0.0384187
rclavicle -9.23106e-015 -2.78299e-014
rhumerus -32.9669 -21.8529 -74.9079
rradius 20.7082
rwrist 9.90814
rhand -16.1576 20.1273
rfingers 7.12502
rthumb 10.0481 -9.61278
lclavicle -9.23106e-015 -2.78299e-014
lhumerus -29.2804 2.80916 82.2523
lradius 26.1357
lwrist 5.68663
lhand -28.1899 21.146
lfingers 7.12502
lthumb -1.56932 51.12
rfemur -11.1892 4.42087 30.3665
rtibia 25.836
rfoot -8.82755 -3.9126
rtoes 11.677
lfemur -10.0415 3.24549 -13.7978
ltibia 65.593
lfoot 4.24433 -6.55422
ltoes -10.1643
17
root 0.189201 18.2505 -21.3946 -3.67555 -1.50638 -4.72799
lowerback 11.5789 -0.499571 2.0331
upperback -0.0806775 -0.158882 3.44148
thorax -6.59191 -0.0858914 2.51091
lowerneck -14.8924 -2.35983 -2.63212
upperneck 22.1653 -2.53657 -0.445138
head 9.48689 -1.45675 -0.0303166
rclavicle 1.19395e-014 -9.14409e-015
rhumerus -32.4095 -22.2621 -75.1214
rradius 20.6071
rwrist 9.849
rhand -17.6517 23.2894
rfingers 7.12502
rthumb 8.60644 -6.51517
lclavicle 1.19395e-014 -9.14409e-015
lhumerus -29.3627 2.74029 82.2739
lradius 25.7508
lwrist 5.75238
lhand -27.7784 21.692
lfingers 7.12502
lthumb -1.17191 51.6685
rfemur -10.7367 4.51971 30.5769
rtibia 25.8638
rfoot -8.83891 -3.8408
rtoes 13.1991
lfemur -11.424 3.09226 -13.7353
ltibia 65.9029
lfoot -0.383418 -8.08365
ltoes -21.6154
18
root 0.177449 18.2632 -21.2297 -3.67498 -1.35775 -4.71958
lowerback 11.7461 -0.673958 1.8804
upperback -0.487234 -0.380515 3.54937
thorax -7.11222 -0.185378 2.76312
lowerneck -13.8762 -2.19968 -2.89682
upperneck 22.1048 -2.26494 -0.526386
head 9.27606 -1.36298 0.0321025
rclavicle -1.77819e-014 7.95139e-016
rhumerus -32.6114 -20.8086 -75.3662
rradius 21.0355
rwrist 9.00135
rhand -17.3648 22.9163
rfingers 7.12502
rthumb 8.88331 -6.87672
lclavicle -1.77819e-014 7.95139e-016
lhumerus -30.4825 3.39652 82.2952
lradius 25.3879
lwrist 5.96735
lhand -27.5437 20.4536
lfingers 7.12502
lthumb -0.945228 50.4312
rfemur -10.1351 4.57859 30.6644
rtibia 25.9195
rfoot -9.40894 -4.24401
rtoes 12.5509
lfemur -12.5885 2.92105 -13.8263
ltibia 66.038
lfoot -2.85762 -7.78764
ltoes -22.2354
19
root 0.164509 18.2624 -21.069 -3.67921 -1.53131 -4.81992
lowerback 11.8227 -0.185947 2.56607
upperback 0.129271 0.303328 2.98914
thorax -6.51316 0.11585 1.65092
lowerneck -16.6186 -2.76512 -2.03308
upperneck 22.5963 -3.19211 -0.51904
head 9.95732 -1.71516 -0.269177
rclavicle 9.19379e-015 2.5842e-014
rhumerus -31.2355 -22.3072 -76.3391
rradius 21.6717
rwrist 8.44092
rhand -15.5888 19.0515
rfingers 7.12502
rthumb 10.5968 -10.6613
lclavicle 9.19379e-015 2.5842e-014
lhumerus -28.8283 1.70099 82.4313
lradius 24.8274
lwrist 6.20714
lhand -28.3064 18.6244
lfingers 7.12502
lthumb -1.68187 48.5976
rfemur -9.55404 4.80091 30.8952
rtibia 26.0186
rfoot -10.1921 -5.21482
rtoes 10.2331
lfemur -13.6351 3.0401 -13.7231
ltibia 66.1019
lfoot -5.91235 -7.22773
ltoes -18.5475
20
root 0.151767 18.254 -20.9124 -3.55047 -1.60746 -4.9945
lowerback 11.6391 -0.217434 2.62031
upperback -0.0390115 0.276177 3.12409
thorax -6.58913 0.102439 1.76845
lowerneck -15.8405 -2.71673 -2.34592
upperneck 22.3237 -3.05761 -0.53062
head 9.71917 -1.68252 -0.188743
rclavicle -1.15295e-014 -2.38542e-015
rhumerus -30.9875 -20.8052 -76.8833
rradius 22.3018
rwrist 7.26335
rhand -14.9391 16.2882
rfingers 7.12502
rthumb 11.2235 -13.3915
lclavicle -1.15295e-014 -2.38542e-015
lhumerus -29.5425 2.09713 82.5555
lradius 24.7162
lwrist 5.76727
lhand -28.4746 18.977
lfingers 7.12502
lthumb -1.84424 48.9488
rfemur -9.18565 4.9115 31.1878
rtibia 26.1904
rfoot -10.7829 -5.5975
rtoes 8.92899
lfemur -14.7661 3.12457 -13.5328
ltibia 66.1459
lfoot -0.282625 -4.32117
ltoes -8.4894
21
root 0.14288 18.2389 -20.7543 -3.32294 -1.43348 -5.05004
lowerback 11.2281 -0.223743 2.76534
upperback -0.00416489 0.261621 3.06682
thorax -6.319 0.0911351 1.62426
lowerneck -15.9165 -2.6927 -2.35454
upperneck 22.2583 -3.02933 -0.486585
head 9.71093 -1.66441 -0.168796
rclavicle 7.92654e-015 1.78906e-014
rhumerus -30.3448 -20.2386 -77.4089
rradius 22.735
rwrist 6.65467
rhand -15.0899 15.2569
rfingers 7.12502
rthumb 11.078 -14.4307
lclavicle 7.92654e-015 1.78906e-014
lhumerus -29.711 2.0917 82.6382
lradius 24.59
lwrist 5.75366
lhand -28.0537 20.2716
lfingers 7.12502
lthumb -1.43779 50.2465
rfemur -8.96956 4.75165 31.3112
rtibia 26.4566
rfoot -11.5626 -5.50012
rtoes 7.76507
lfemur -16.0957 2.87717 -13.5436
ltibia 66.1013
lfoot -1.4984 -3.72633
ltoes -7.10161
22
root 0.132058 18.2182 -20.6029 -3.26287 -1.37827 -5.0459
lowerback 11.2625 -0.130959 2.86644
upperback -0.00956008 0.390202 2.90968
thorax -6.34309 0.148302 1.38047
lowerneck -16.2338 -2.79148 -2.30931
upperneck 22.4173 -3.2155 -0.306537
head 9.83074 -1.72525 -0.144438
rclavicle 1.12065e-014 -1.63003e-014
rhumerus -29.9003 -19.7401 -77.9613
rradius 23.2364
rwrist 5.63083
rhand -15.301 14.3446
rfingers 7.12502
rthumb 10.8744 -15.3538
lclavicle 1.12065e-014 -1.63003e-014
lhumerus -29.9148 1.81277 82.6947
lradius 24.4635
lwrist 5.9195
lhand -27.583 19.9759
lfingers 7.12502
lthumb -0.98313 49.9534
rfemur -8.59913 4.74278 31.4046
rtibia 26.7527
rfoot -12.5233 -5.53066
rtoes 6.50501
lfemur -17.3752 2.66697 -13.5994
ltibia 65.9172
lfoot -2.67998 -3.21993
ltoes -4.74602
23
root 0.122105 18.1953 -20.4584 -3.32156 -1.46023 -5.04675
lowerback 11.6076 0.0171258 2.97867
upperback 6.075e-005 0.608404 2.74651
thorax -6.52512 0.247528 1.10978
lowerneck -16.6259 -2.92342 -2.18932
upperneck 22.4821 -3.44461 -0.217413
head 9.92889 -1.80899 -0.170595
rclavicle -1.63066e-014 5.56597e-015
rhumerus -29.3485 -19.2294 -78.5502
rradius 23.6704
rwrist 4.98175
rhand -15.7224 13.2575
rfingers 7.12502
rthumb 10.468 -16.4619
lclavicle -1.63066e-014 5.56597e-015
lhumerus -30.0286 1.56414 82.7665
lradius 24.3441
lwrist 5.81186
lhand -27.5683 18.5684
lfingers 7.12502
lthumb -0.968992 48.546
rfemur -8.12497 4.76139 31.4915
rtibia 26.9914
rfoot -13.2626 -5.50678
rtoes 6.15497
lfemur -18.4231 2.62046 -13.643
ltibia 65.4865
lfoot -3.86709 -2.92771
ltoes -3.28092
24
root 0.108409 18.1889 -20.313 -3.32668 -1.51316 -5.05806
lowerback 11.873 0.0127613 2.82541
upperback -0.0973588 0.60415 2.82217
thorax -6.78114 0.249504 1.27858
lowerneck -16.3268 -2.88008 -2.1791
upperneck 22.0903 -3.34149 -0.420937
head 9.72861 -1.78476 -0.220638
rclavicle 1.2275e-014 -3.93594e-014
rhumerus -28.9933 -17.6101 -79.1783
rradius 24.3899
rwrist 4.4096
rhand -16.7015 11.4061
rfingers 7.12502
rthumb 9.52335 -18.3587
lclavicle 1.2275e-014 -3.93594e-014
lhumerus -30.4492 2.03622 82.8792
lradius 24.1527
lwrist 5.63645
lhand -27.5765 19.3334
lfingers 7.12502
lthumb -0.9769 49.3109
rfemur -7.69855 4.78161 31.5888
rtibia 27.1647
rfoot -13.6636 -5.59165
rtoes 7.85984
lfemur -19.4107 2.58275 -13.6842
ltibia 64.7673
lfoot -4.70741 -2.54863
ltoes -4.25184
25
root 0.0979028 18.1893 -20.1608 -3.32048 -1.69518 -5.24743
lowerback 11.9694 0.0234541 2.97188
upperback -0.25473 0.655322 2.89162
thorax -7.00338 0.268481 1.26251
lowerneck -15.648 -2.84302 -2.23147
upperneck 21.798 -3.2634 -0.545589
head 9.497 -1.76857 -0.231038
rclavicle 2.73329e-015 2.22639e-014
rhumerus -29.018 -16.0429 -79.7154
rradius 25.2938
rwrist 3.60654
rhand -17.9633 13.3652
rfingers 7.12502
rthumb 8.30575 -16.4515
lclavicle 2.73329e-015 2.22639e-014
lhumerus -31.1858 2.38062 82.9434
lradius 24.1054
lwrist 5.56287
lhand -27.3575 20.9138
lfingers 7.12502
lthumb -0.765397 50.8921
rfemur -7.20253 4.78334 31.8762
rtibia 27.3018
rfoot -14.1145 -5.61715
rtoes 10.3472
lfemur -20.2579 2.70891 -13.4923
ltibia 63.8582
lfoot -5.43077 -2.091
ltoes -6.03273
26
root 0.0953663 18.1772 -20.0025 -3.26245 -1.90639 -5.3487
lowerback 11.9269 0.201749 3.32516
upperback -0.219116 0.925142 2.70729
thorax -6.93281 0.384961 0.820124
lowerneck -15.854 -2.97096 -2.0267
upperneck 21.8373 -3.48885 -0.550342
head 9.54634 -1.85621 -0.299269
rclavicle -7.55382e-015 8.15017e-015
rhumerus -28.6139 -15.5271 -80.2481
rradius 25.9446
rwrist 2.96028
rhand -19.3151 19.1371
rfingers 7.12502
rthumb 7.00104 -10.7271
lclavicle -7.55382e-015 8.15017e-015
lhumerus -31.3993 2.16035 82.9296
lradius 24.1026
lwrist 5.35766
lhand -27.2357 20.125
lfingers 7.12502
lthumb -0.64771 50.1038
rfemur -6.72405 4.68447 32.0245
rtibia 27.4159
rfoot -14.7364 -5.41513
rtoes 10.4568
lfemur -21.0419 2.79095 -13.4428
ltibia 62.8261
lfoot -6.159 -1.35244
ltoes -7.34249
27
root 0.0944646 18.1597 -19.8476 -3.10764 -1.97952 -5.56917
lowerback 11.8286 0.26456 3.73506
upperback -0.206187 1.05531 2.64625
thorax -6.85426 0.434068 0.502384
lowerneck -15.8759 -2.99817 -1.99105
upperneck 21.555 -3.54229 -0.514857
head 9.4516 -1.87348 -0.296926
rclavicle 8.08184e-015 2.16675e-014
rhumerus -28.1402 -14.8164 -80.7242
rradius 26.6296
rwrist 2.44133
rhand -19.8705 21.9342
rfingers 7.12502
rthumb 6.46482 -7.94715
lclavicle 8.08184e-015 2.16675e-014
lhumerus -31.522 2.17293 82.9683
lradius 23.9037
lwrist 5.21612
lhand -27.6054 18.2146
lfingers 7.12502
lthumb -1.00476 48.1919
rfemur -6.38204 4.50942 32.2954
rtibia 27.5587
rfoot -15.3183 -5.25841
rtoes 10.6449
lfemur -21.9797 2.7797 -13.2678
ltibia 61.6987
lfoot -6.28477 -0.543982
ltoes -5.319
